<?xml version="1.0" encoding="utf-8"?>
<svg version="1.1" id="Layer_1"
xmlns="http://www.w3.org/2000/svg"
xmlns:xlink="http://www.w3.org/1999/xlink"
width="35px" height="45px"
xml:space="preserve">
<g id="PathID_7" transform="matrix(-0.00166197, 0.162088, -0.162088, -0.00166197, 29.6, 5.05)" opacity="1">
<linearGradient
id="LinearGradID_4" gradientUnits="userSpaceOnUse" gradientTransform="matrix(-0.0904815, 0.0904815, -0.0904815, -0.0904815, 104.8, 75.3)" spreadMethod ="pad" x1="-819.2" y1="0" x2="819.2" y2="0" >
<stop  offset="0" style="stop-color:#BC7D52;stop-opacity:1" />
<stop  offset="0.32549" style="stop-color:#CF7A42;stop-opacity:1" />
<stop  offset="0.54902" style="stop-color:#DB6820;stop-opacity:1" />
<stop  offset="0.737255" style="stop-color:#D5631D;stop-opacity:1" />
<stop  offset="1" style="stop-color:#F8B98E;stop-opacity:1" />
</linearGradient>
<path style="fill:url(#LinearGradID_4) " d="M191.75 132.7L191.75 100.95L108.4 17.6L100.95 17.6L17.6 100.95L17.6 132.7L20.1 132.7L93.75 59.05L115.6 59.05L189.55 132.7L191.75 132.7M182.35 150.6L108.4 76.9L100.95 76.9L27.05 150.6L0 150.6L0 93.75L93.75 0L115.6 0L209.65 93.75L209.65 150.6L182.35 150.6" />
</g>
<g id="PathID_8" transform="matrix(-0.00166197, 0.162088, -0.162088, -0.00166197, 29.6, 5.05)" opacity="1">
</g>
</svg>
