<?xml version="1.0" encoding="iso-8859-1"?>
<!-- Generator: Adobe Illustrator 19.0.0, SVG Export Plug-In . SVG Version: 6.00 Build 0)  -->
<svg version="1.1" id="Capa_1" xmlns="http://www.w3.org/2000/svg" xmlns:xlink="http://www.w3.org/1999/xlink" x="0px" y="0px"
	 viewBox="0 0 512.001 512.001" style="enable-background:new 0 0 512.001 512.001;" xml:space="preserve">
<g>
	<g>
		<path d="M509.966,364.905c-0.158-0.168-15.856-17.048-19.47-36.325c-3.011-16.058,0.724-29.488,5.048-45.038
			c3.657-13.152,7.439-26.752,7.439-43.261c0-37.193-21.393-64.809-60.239-77.758c-24.914-8.305-67.486-7.832-112.557-7.332
			c-53.292,0.594-113.698,1.262-138.85-14.458c-4.793-2.995-8.286-12.815-11.319-22.494c19.404-8.08,30.132-25.202,32.397-42.405
			c1.723-13.087-1.185-26.312-8.188-37.235c-7.726-12.053-19.697-20.354-34.62-24.008c-25.637-6.275-50.199-0.075-71.032,17.934
			c-12.849,11.107-20.467,23.434-22.813,27.55C31.357,97.365,2.333,144.218,1.109,146.21c-1.175,1.914-1.431,4.254-0.697,6.376
			l4.767,13.782c3.34,9.658,12.274,15.785,22.237,15.785c1.553,0,3.132-0.149,4.717-0.457c11.744-2.279,22.651-2.983,33.2-3.664
			c13.293-0.858,26.191-1.693,37.861-6.016c4.31,8.008,7.866,21.014,11.908,35.819c10.824,39.646,25.552,93.607,72.979,117.33
			l13.659,57.118v68.37l-16.75,38.652c-1.004,2.318-0.774,4.986,0.612,7.099c1.386,2.112,3.743,3.384,6.27,3.384h40.081
			c3.967,0,7.249-3.09,7.486-7.05l9.02-149.965c4.045,0.327,8.168,0.58,12.305,0.752c0.106,0.005,0.212,0.007,0.317,0.007
			c3.998,0,7.32-3.156,7.488-7.188c0.172-4.139-3.043-7.633-7.182-7.805c-4.049-0.169-8.079-0.419-12.028-0.743l0.767-12.748
			c0.249-4.135-2.901-7.688-7.036-7.937c-4.146-0.255-7.688,2.902-7.937,7.036l-8.683,144.359l-10.305-3.435
			c0.375-0.908,0.574-1.881,0.574-2.864v-70.81c0-0.588-0.069-1.173-0.206-1.744l-14.696-61.457
			c-0.538-2.248-2.082-4.123-4.186-5.081c-43.69-19.898-57.213-69.432-68.079-109.231c-4.244-15.548-7.992-29.255-13.128-38.883
			c5.055-3.658,9.754-8.428,14.002-14.708c2.321-3.431,1.421-8.094-2.01-10.414c-3.431-2.319-8.094-1.421-10.414,2.01
			c-12.527,18.519-29.779,19.632-53.656,21.173c-10.504,0.678-22.409,1.446-35.091,3.908c-4.351,0.842-8.524-1.472-9.92-5.506
			l-3.579-10.349c6.765-10.352,31.231-46.045,65.396-75.923C103.73,96.1,129.47,91.556,130.636,91.336
			c2.724-0.514,4.943-2.489,5.769-5.136c4.042-12.952,12.838-13.254,15.432-13.045c4.231,0.349,8.828,3.062,9.56,8.336
			c0.67,4.822-0.249,8.619-2.809,11.607c-6.067,7.084-20.058,8.841-24.92,8.92c-3.198,0.037-6.02,2.098-7.029,5.132
			c-1.009,3.034,0.016,6.374,2.554,8.319c0.969,0.742,9.854,7.262,23.438,7.558c0.604,0.014,1.202,0.02,1.796,0.02
			c3.909,0,7.608-0.297,11.121-0.83c3.993,12.808,8.508,25.403,17.84,31.236c28.875,18.047,88.91,17.379,146.966,16.736
			c43.776-0.483,85.123-0.944,107.647,6.563c41.311,13.771,49.982,42.147,49.982,63.527c0,14.462-3.503,27.06-6.891,39.242
			c-4.421,15.898-8.993,32.338-5.339,51.82c3.494,18.635,15.563,34.721,20.824,41.023l-12.844,87.056l-13.056-4.352
			c0.243-0.588,0.418-1.203,0.505-1.834l10.688-77.155c0.397-2.867-0.891-5.707-3.311-7.297
			c-53.07-34.875-71.635-67.59-77.153-80.037c-1.679-3.788-6.112-5.493-9.896-3.816c-3.787,1.679-5.496,6.109-3.817,9.896
			c1.113,2.511,2.704,5.77,4.909,9.645c-15.025,5.692-58.57,20.917-100.296,23.345c-4.135,0.24-7.292,3.788-7.052,7.923
			c0.232,3.987,3.538,7.064,7.48,7.064c0.146,0,0.294-0.004,0.442-0.013c47.353-2.755,95.356-20.561,107.698-25.422
			c11.778,16.548,31.896,38.591,65.49,61.313l-9.902,71.481l-16.961,39.141c-1.004,2.318-0.774,4.986,0.612,7.099
			c1.386,2.111,3.743,3.384,6.27,3.384h40.081c3.719,0,6.877-2.726,7.42-6.405l18.036-122.246
			C512.255,368.87,511.535,366.575,509.966,364.905z M210.185,468.89l15.353,5.118l-0.648,10.78h-21.594L210.185,468.89z
			 M165.896,106.805c1.492-1.201,2.84-2.5,4.042-3.897c5.395-6.27,7.579-14.389,6.316-23.479
			c-1.597-11.503-11.131-20.229-23.185-21.222c-0.787-0.065-1.567-0.097-2.341-0.097c-11.495,0-21.494,7.068-26.802,18.778
			c-2.445,0.049-5.859-0.111-9.792-0.909c-8.692-1.763-16.446-5.831-23.113-12.116c3.127-4.808,8.941-12.711,17.364-19.991
			c17.244-14.906,36.643-19.857,57.655-14.711c24.888,6.093,33.776,27.45,31.503,44.714
			C194.911,93.863,180.721,103.601,165.896,106.805z M479.989,484.788h-22.181l6.889-15.898l16.811,5.604L479.989,484.788z"/>
	</g>
</g>
<g>
	<g>
		<path d="M77.722,103.304h-0.08c-4.142,0-7.46,3.357-7.46,7.5s3.398,7.5,7.54,7.5c4.142,0,7.5-3.357,7.5-7.5
			S81.864,103.304,77.722,103.304z"/>
	</g>
</g>
<g>
</g>
<g>
</g>
<g>
</g>
<g>
</g>
<g>
</g>
<g>
</g>
<g>
</g>
<g>
</g>
<g>
</g>
<g>
</g>
<g>
</g>
<g>
</g>
<g>
</g>
<g>
</g>
<g>
</g>
</svg>
